<mxfile host="65bd71144e">
    <diagram name="算法优化工作流" id="algorithm-workflow">
        <mxGraphModel dx="1019" dy="667" grid="1" gridSize="10" guides="1" tooltips="1" connect="1" arrows="1" fold="1" page="1" pageScale="1" pageWidth="1169" pageHeight="827" math="0" shadow="0">
            <root>
                <mxCell id="0"/>
                <mxCell id="1" parent="0"/>
                <mxCell id="start-node" value="算法原型&#xa;验证规则&#xa;测试文件&#xa;预期结果" style="rounded=1;whiteSpace=wrap;html=1;fillColor=#e1f5fe;strokeColor=#01579b;strokeWidth=2;fontStyle=1;fontSize=15;spacingTop=10;spacingBottom=10;" parent="1" vertex="1">
                    <mxGeometry x="180" y="190" width="160" height="80" as="geometry"/>
                </mxCell>
                <mxCell id="execute-algorithm" value="执行检测算法&#xa;获得实际输出" style="rounded=0;whiteSpace=wrap;html=1;fillColor=#fff3e0;strokeColor=#e65100;strokeWidth=2;fontSize=15;spacingTop=8;spacingBottom=8;" parent="1" vertex="1">
                    <mxGeometry x="480" y="200" width="160" height="60" as="geometry"/>
                </mxCell>
                <mxCell id="compare-results" value="对比预期结果" style="rhombus;whiteSpace=wrap;html=1;fillColor=#f3e5f5;strokeColor=#4a148c;strokeWidth=2;fontSize=15;fontStyle=1;" parent="1" vertex="1">
                    <mxGeometry x="460" y="340" width="200" height="80" as="geometry"/>
                </mxCell>
                <mxCell id="analyze-failure" value="分析失败原因&#xa;生成改进建议" style="rounded=0;whiteSpace=wrap;html=1;fillColor=#ffebee;strokeColor=#c62828;strokeWidth=2;fontSize=15;spacingTop=8;spacingBottom=8;" parent="1" vertex="1">
                    <mxGeometry x="780" y="350" width="160" height="60" as="geometry"/>
                </mxCell>
                <mxCell id="update-algorithm" value="更新算法实现" style="rounded=0;whiteSpace=wrap;html=1;fillColor=#e8f5e8;strokeColor=#2e7d32;strokeWidth=2;fontSize=15;spacingTop=8;spacingBottom=8;" parent="1" vertex="1">
                    <mxGeometry x="780" y="480" width="160" height="60" as="geometry"/>
                </mxCell>
                <mxCell id="optimization-complete" value="优化完成" style="ellipse;whiteSpace=wrap;html=1;fillColor=#e8f5e8;strokeColor=#2e7d32;strokeWidth=3;fontSize=15;fontStyle=1;" parent="1" vertex="1">
                    <mxGeometry x="180" y="350" width="120" height="60" as="geometry"/>
                </mxCell>
                <mxCell id="edge-start-execute" value="" style="edgeStyle=orthogonalEdgeStyle;rounded=0;orthogonalLoop=1;jettySize=auto;html=1;strokeWidth=2;strokeColor=#1976d2;fontSize=15;" parent="1" source="start-node" target="execute-algorithm" edge="1">
                    <mxGeometry relative="1" as="geometry"/>
                </mxCell>
                <mxCell id="edge-execute-compare" value="" style="edgeStyle=orthogonalEdgeStyle;rounded=0;orthogonalLoop=1;jettySize=auto;html=1;strokeWidth=2;strokeColor=#1976d2;fontSize=15;" parent="1" source="execute-algorithm" target="compare-results" edge="1">
                    <mxGeometry relative="1" as="geometry"/>
                </mxCell>
                <mxCell id="edge-compare-analyze" value="识别差异点" style="edgeStyle=orthogonalEdgeStyle;rounded=0;orthogonalLoop=1;jettySize=auto;html=1;strokeWidth=2;strokeColor=#d32f2f;fontSize=15;fontStyle=1;" parent="1" source="compare-results" target="analyze-failure" edge="1">
                    <mxGeometry relative="1" as="geometry"/>
                </mxCell>
                <mxCell id="edge-analyze-update" value="" style="edgeStyle=orthogonalEdgeStyle;rounded=0;orthogonalLoop=1;jettySize=auto;html=1;strokeWidth=2;strokeColor=#388e3c;fontSize=15;" parent="1" source="analyze-failure" target="update-algorithm" edge="1">
                    <mxGeometry relative="1" as="geometry"/>
                </mxCell>
                <mxCell id="edge-update-execute" value="重新测试验证" style="edgeStyle=orthogonalEdgeStyle;rounded=1;orthogonalLoop=1;jettySize=auto;html=1;strokeWidth=2;strokeColor=#ff9800;curved=0;fontSize=15;fontStyle=1;" parent="1" source="update-algorithm" target="execute-algorithm" edge="1">
                    <mxGeometry relative="1" as="geometry">
                        <Array as="points">
                            <mxPoint x="860" y="600"/>
                            <mxPoint x="1080" y="600"/>
                            <mxPoint x="1080" y="230"/>
                        </Array>
                    </mxGeometry>
                </mxCell>
                <mxCell id="edge-compare-complete" value="无差异" style="edgeStyle=orthogonalEdgeStyle;rounded=0;orthogonalLoop=1;jettySize=auto;html=1;strokeWidth=2;strokeColor=#2e7d32;fontSize=15;fontStyle=1;" parent="1" source="compare-results" target="optimization-complete" edge="1">
                    <mxGeometry relative="1" as="geometry"/>
                </mxCell>
                <mxCell id="4" value="" style="group" vertex="1" connectable="0" parent="1">
                    <mxGeometry x="180" y="480" width="300" height="120" as="geometry"/>
                </mxCell>
                <mxCell id="legend-bg" value="" style="rounded=1;whiteSpace=wrap;html=1;fillColor=#f5f5f5;strokeColor=#9e9e9e;strokeWidth=1;opacity=30;fontSize=12;" parent="4" vertex="1">
                    <mxGeometry width="300" height="120" as="geometry"/>
                </mxCell>
                <mxCell id="legend-title" value="图例" style="text;html=1;strokeColor=none;fillColor=none;align=left;verticalAlign=middle;whiteSpace=wrap;rounded=0;fontSize=12;fontStyle=1;fontColor=#424242;" parent="4" vertex="1">
                    <mxGeometry x="10" y="10" width="60" height="20" as="geometry"/>
                </mxCell>
                <mxCell id="legend-input" value="输入/输出" style="rounded=1;whiteSpace=wrap;html=1;fillColor=#e1f5fe;strokeColor=#01579b;strokeWidth=1;fontSize=12;" parent="4" vertex="1">
                    <mxGeometry x="10" y="40" width="60" height="20" as="geometry"/>
                </mxCell>
                <mxCell id="legend-process" value="处理" style="rounded=0;whiteSpace=wrap;html=1;fillColor=#fff3e0;strokeColor=#e65100;strokeWidth=1;fontSize=12;" parent="4" vertex="1">
                    <mxGeometry x="90" y="40" width="60" height="20" as="geometry"/>
                </mxCell>
                <mxCell id="legend-decision" value="决策" style="rhombus;whiteSpace=wrap;html=1;fillColor=#f3e5f5;strokeColor=#4a148c;strokeWidth=1;fontSize=12;" parent="4" vertex="1">
                    <mxGeometry x="170" y="35" width="50" height="30" as="geometry"/>
                </mxCell>
                <mxCell id="legend-end" value="结束" style="ellipse;whiteSpace=wrap;html=1;fillColor=#e8f5e8;strokeColor=#2e7d32;strokeWidth=1;fontSize=12;" parent="4" vertex="1">
                    <mxGeometry x="240" y="40" width="40" height="20" as="geometry"/>
                </mxCell>
                <mxCell id="legend-success" value="成功路径" style="text;html=1;strokeColor=none;fillColor=none;align=left;verticalAlign=middle;whiteSpace=wrap;rounded=0;fontSize=12;fontColor=#2e7d32;" parent="4" vertex="1">
                    <mxGeometry x="70" y="70" width="60" height="15" as="geometry"/>
                </mxCell>
                <mxCell id="legend-success-line" value="" style="endArrow=classic;html=1;rounded=0;strokeWidth=2;strokeColor=#2e7d32;fontSize=12;" parent="4" edge="1">
                    <mxGeometry width="50" height="50" relative="1" as="geometry">
                        <mxPoint x="10" y="77" as="sourcePoint"/>
                        <mxPoint x="60" y="77" as="targetPoint"/>
                    </mxGeometry>
                </mxCell>
                <mxCell id="legend-loop" value="循环路径" style="text;html=1;strokeColor=none;fillColor=none;align=left;verticalAlign=middle;whiteSpace=wrap;rounded=0;fontSize=12;fontColor=#ff9800;" parent="4" vertex="1">
                    <mxGeometry x="190" y="70" width="60" height="15" as="geometry"/>
                </mxCell>
                <mxCell id="legend-loop-line" value="" style="endArrow=classic;html=1;rounded=1;strokeWidth=2;strokeColor=#ff9800;curved=1;fontSize=12;" parent="4" edge="1">
                    <mxGeometry width="50" height="50" relative="1" as="geometry">
                        <mxPoint x="130" y="77" as="sourcePoint"/>
                        <mxPoint x="180" y="77" as="targetPoint"/>
                    </mxGeometry>
                </mxCell>
                <mxCell id="5" value="LLM" style="text;html=1;strokeColor=none;fillColor=none;align=left;verticalAlign=middle;whiteSpace=wrap;rounded=0;fontSize=15;fontStyle=1;fontColor=#1565c0;" vertex="1" parent="1">
                    <mxGeometry x="780" y="310" width="100" height="30" as="geometry"/>
                </mxCell>
                <mxCell id="6" value="LLM" style="text;html=1;strokeColor=none;fillColor=none;align=left;verticalAlign=middle;whiteSpace=wrap;rounded=0;fontSize=15;fontStyle=1;fontColor=#1565c0;" vertex="1" parent="1">
                    <mxGeometry x="780" y="440" width="100" height="30" as="geometry"/>
                </mxCell>
            </root>
        </mxGraphModel>
    </diagram>
</mxfile>